# xmcd CD database file
#
# Track frame offsets:
#	150
#	5317
#	37294
#	69321
#	106833
#	141761
#	171876
#	194933
#	202297
#	317045
#
# Disc length: 4313 seconds
#
# Revision: 0
# Processed by: cddbd v1.5.2PL0 Copyright (c) Steve Scherf et al.
# Submitted via: CDex 1.51
#
DISCID=9710d70a
DTITLE=Abraham-Hicks - 10-27-07 - Asheville, NC
DYEAR=2007
DGENRE=New Age
TTITLE0=Abraham-Hicks Publications
TTITLE1=Can't we control conditions?
TTITLE2=Isn't all physical nonphysical?
TTITLE3=Flowing downstream is natural
TTITLE4=Could manifestations hinder? 
TTITLE5=Can each next step be "logical"?
TTITLE6=After he died, who came back?
TTITLE7=Why didn't success come sooner?
TTITLE8=Spooked by an unwanted spirit?
TTITLE9=Asheville, NC Saturday close
EXTD=YEAR: 2007
EXTT0=
EXTT1=
EXTT2=
EXTT3=
EXTT4=
EXTT5=
EXTT6=
EXTT7=
EXTT8=
EXTT9=
PLAYORDER=
